<svg class="tn-svg-line tn-svg-line--RER_B traffic-info-line-container__picto" viewBox="0 0 48 48"
    xmlns="http://www.w3.org/2000/svg" aria-hidden="true" style="height: 40px;">
    <path
        d="M37.2148 48H10.8021C4.84233 48 0 43.1577 0 37.1979V10.8021C0 4.84233 4.84233 0 10.8021 0H37.1979C43.1577 0 48 4.84233 48 10.8021V37.1979C48 43.1577 43.1746 48 37.2148 48Z" fill="#5291ce">
</path>
    <path
        d="M23.4157 36.69H14.1543V11.2593H23.8051C28.5628 11.2593 33.0157 12.563 33.0157 17.7101C33.0157 20.3344 30.9331 22.3154 28.9522 22.6709V22.7386C31.6104 23.0942 33.8453 25.1937 33.8453 28.7831C33.8622 35.217 28.2411 36.69 23.4157 36.69ZM22.5522 15.509H19.7755V21.3503H22.6199C25.5659 21.3503 27.513 20.8762 27.513 18.472C27.513 16.1355 25.786 15.509 22.5522 15.509ZM22.8061 25.3799H19.7755V32.4741H23.094C26.6495 32.4741 28.0548 31.3566 28.0548 28.6646C28.0548 25.854 25.3628 25.3799 22.8061 25.3799Z"
        class="svg-line-number" fill="#fff"></path>
</svg>