<svg class="tn-svg-line tn-svg-line--RER_A traffic-info-line-container__picto" viewBox="0 0 48 48"
    xmlns="http://www.w3.org/2000/svg" aria-hidden="true" style="height: 40px;">
    <path
        d="M37.1979 48H10.8021C4.84233 48 0 43.1577 0 37.1979V10.8021C0 4.84233 4.84233 0 10.8021 0H37.1979C43.1577 0 48 4.84233 48 10.8021V37.1979C47.9831 43.1577 43.1577 48 37.1979 48Z" fill="#e3051c">
</path>
    <path
        d="M30.0357 36.6899L28.4441 31.8645H19.0473L17.4558 36.6899H11.9023L20.9098 11.2423H26.9881L36.0632 36.6899H30.0357ZM24.9225 20.9947C24.3807 19.3693 23.9574 17.2867 23.8389 16.3555H23.7711C23.6695 17.2867 23.1616 19.3862 22.6198 20.9947L20.4526 27.6487H27.0896L24.9225 20.9947Z"
        class="svg-line-number" style="fill: white;"></path>
</svg>