<svg class="tn-svg-line tn-svg-line--RER_D traffic-info-line-container__picto" viewBox="0 0 48 48"
     xmlns="http://www.w3.org/2000/svg" aria-hidden="true">
    <path d="M37.1979 48H10.8021C4.84232 48 0 43.1577 0 37.1979V10.8021C0 4.84233 4.84232 0 10.8021 0H37.1979C43.1577 0 48 4.84233 48 10.8021V37.1979C48 43.1577 43.1577 48 37.1979 48Z" fill="#00814f"></path>
    <path d="M21.2996 36.69H14.1377V11.2593H21.5536C28.9694 11.2593 36.961 12.9185 36.961 23.399C36.961 34.5228 29.071 36.69 21.2996 36.69ZM22.3324 15.6953H19.7419V32.2879H22.5186C27.4118 32.2879 31.1536 30.4085 31.1536 23.7545C31.1536 16.6265 25.7864 15.6953 22.3324 15.6953Z"
          class="svg-line-number" fill="#fff"></path>
</svg>