<svg class="tn-svg-line tn-svg-line--RER_C traffic-info-line-container__picto" viewBox="0 0 48 48"
     xmlns="http://www.w3.org/2000/svg" aria-hidden="true">
    <path d="M37.1979 48H10.8021C4.84232 48 0 43.1577 0 37.1979V10.8021C0 4.84233 4.84232 0 10.8021 0H37.1979C43.1577 0 48 4.84233 48 10.8021V37.1979C48 43.1577 43.1746 48 37.1979 48Z" fill="#ffce00"></path>
    <path d="M25.1085 37.2995C18.6577 37.2995 12.5117 33.0498 12.5117 24.2625C12.5117 16.6603 16.9477 10.582 25.1085 10.582C28.2408 10.582 30.5434 11.2254 32.389 12.055L30.5604 16.6942C28.9011 15.763 27.0387 15.3228 25.4133 15.3228C21.5191 15.3228 18.353 17.8794 18.353 23.9916C18.353 29.8328 22.1625 32.5249 25.8366 32.5249C27.8514 32.5249 29.6461 31.9154 30.9159 31.1535L32.4228 35.5048C30.4757 36.5715 27.699 37.2995 25.1085 37.2995Z"
          class="svg-line-number svg-line-number--inverted" fill="#000000"></path>
</svg>