<svg class="tn-svg-line tn-svg-line--LIGNE_P traffic-info-line-container__picto" viewBox="0 0 48 48"
     xmlns="http://www.w3.org/2000/svg" aria-hidden="true">
    <path d="M37.1979 48H10.8021C4.84232 48 0 43.1577 0 37.1979V10.8021C0 4.84234 4.84232 0 10.8021 0H37.1979C43.1577 0 48 4.84234 48 10.8021V37.1979C48 43.1577 43.1577 48 37.1979 48Z" fill="#f28e42"></path>
    <path d="M24.3806 27.7503H21.7901V36.673H16.1689V11.2593H23.9743C29.8494 11.2593 34.8779 12.8508 34.8779 19.1492C34.8949 26.5312 28.7488 27.7503 24.3806 27.7503ZM24.3129 15.6275H21.7901V23.4328H24.3806C26.4631 23.4328 29.206 22.7894 29.206 19.5048C29.206 16.0508 26.1922 15.6275 24.3129 15.6275Z"
          class="svg-line-number svg-line-number--inverted" fill="#000"></path>
</svg>