<svg class="tn-svg-line tn-svg-line--LIGNE_R traffic-info-line-container__picto" viewBox="0 0 48 48"
     xmlns="http://www.w3.org/2000/svg" aria-hidden="true">
    <path d="M37.1979 48H10.8021C4.84234 48 0 43.1577 0 37.1979V10.8021C0 4.84234 4.84234 0 10.8021 0H37.1979C43.1577 0 48 4.84234 48 10.8021V37.1979C48 43.1577 43.1577 48 37.1979 48Z" fill="#f3a4ba"></path>
    <path d="M29.4095 36.6899L24.3301 28.055C23.5005 26.6497 22.7047 26.5481 22.1291 26.5481H20.4698V36.7069H14.8486V11.2931H23.0941C28.8169 11.2931 34.0317 12.5968 34.0317 18.6074C34.0317 22.8571 30.7132 24.7704 28.4783 25.1259C29.528 26.9545 33.8455 33.4053 36.182 36.7238H29.4095V36.6899ZM23.2126 15.6275H20.4698V22.3661H23.5343C25.7015 22.3661 28.2073 21.7227 28.2073 18.9121C28.2243 15.983 25.4476 15.6275 23.2126 15.6275Z"
          class="svg-line-number svg-line-number--inverted" fill="#000"></path>
</svg>