<?xml version="1.0" encoding="utf-8"?>
<svg xmlns="http://www.w3.org/2000/svg" version="1.1" class="tn-svg-line tn-svg-line--LIGNE_J" viewBox="0 0 48 48"
    fill="#D5C900" style="height: 40px;">
    <path
        d="M37.2148 48H10.8021C4.84233 48 0 43.1577 0 37.1979V10.8021C0 4.84234 4.84233 0 10.8021 0H37.1979C43.1577 0 48 4.84234 48 10.8021V37.1979C48 43.1577 43.1746 48 37.2148 48Z">
</path>
    <path
        d="M19.7754 36.9778C19.3521 36.9778 18.9119 36.9778 18.4717 36.9439L18.6241 32.7619C18.8103 32.7619 19.0135 32.7958 19.1997 32.7958C22.1796 32.7958 23.9235 31.0688 23.9235 27.1746V11.2593H29.5447V27.6487C29.5278 32.2879 27.0558 36.9778 19.7754 36.9778Z"
        fill="#000" class="svg-line-number svg-line-number--inverted"></path>
</svg>