<svg class="tn-svg-line tn-svg-line--LIGNE_U traffic-info-line-container__picto" viewBox="0 0 48 48"
     xmlns="http://www.w3.org/2000/svg" aria-hidden="true">
    <path d="M37.1979 48H10.8021C4.84234 48 0 43.1576 0 37.1979V10.8021C0 4.84232 4.84234 -1.52588e-05 10.8021 -1.52588e-05H37.1979C43.1577 -1.52588e-05 48 4.84232 48 10.8021V37.1979C47.9831 43.1576 43.1577 48 37.1979 48Z"
          fill="#b90845"></path>
    <path d="M24.0255 37.2995C16.6096 37.2995 13.0371 33.8794 13.0371 27.0392V11.2762H18.6583V26.8699C18.6583 30.2223 20.1313 32.745 24.1271 32.745C28.089 32.745 29.4604 30.2223 29.4604 26.8699V11.2762H34.9292V27.0392C34.9461 33.8794 31.5599 37.2995 24.0255 37.2995Z"
          class="svg-line-number" fill="#fff"></path>
</svg>