<svg width="300" height="304" viewBox="0 0 300 304" fill="none" xmlns="http://www.w3.org/2000/svg">
    <path
        d="M235.094 0H64.9056C29.0566 0 0 29.0566 0 64.9057V238.167C0 274.016 29.0566 303.073 64.9056 303.073H235.094C270.943 303.073 300 274.016 300 238.167V64.9057C300 29.0566 270.943 0 235.094 0Z"
        fill="#67B4E7" />
    <path
        d="M136.361 93.3418C149.164 99.2717 165.741 90.889 173.288 74.6087C180.836 58.3283 176.55 40.296 163.747 34.3661C150.943 28.4092 134.367 36.792 126.819 53.0992C119.272 69.3796 123.558 87.385 136.361 93.3418Z"
        fill="white" />
    <path
        d="M62.2371 163.504C87.601 150.404 110.216 141.347 139.11 140.593C165.876 139.892 188.598 128.409 211.833 116.415C220 112.156 227.278 104.609 232.938 97.4391C234.07 95.9297 241.995 84.1507 234.205 88.1938C208.841 101.294 186.361 110.296 157.466 111.051C130.701 111.752 107.844 123.288 84.6091 135.283C76.442 139.542 69.1644 147.089 63.504 154.259C62.3719 155.768 54.4473 167.547 62.2371 163.504Z"
        fill="white" />
    <path
        d="M213.046 209.218C201.482 192.533 191.159 175.471 173.261 164.582C152.264 151.671 129.137 176.01 115.337 189.595C93.7196 210.997 77.7897 239.514 60.5121 264.474C56.415 270.458 58.7601 272.506 64.6091 268.571C72.5606 263.288 79.7842 255.929 85.1212 248.113C91.2128 239.299 97.3045 230.512 103.396 221.724C109.11 213.423 115.202 199.353 123.666 193.423C154.852 171.428 187.79 253.342 205.957 265.525C217.143 273.018 236.9 271.293 249.703 271.293H256.226L222.938 224.716C219.245 219.353 216.065 213.584 213.046 209.218Z"
        fill="white" />
</svg>