<!--
  - Copyright (c) 2024.
  -->

<svg viewBox="0 0 40 40" xmlns="http://www.w3.org/2000/svg" aria-hidden="true" focusable="false"
     class="svgmode svgmode-metro traffic-info-line-container__picto traffic-info-line-container__picto-mode" style="fill: #1d1d1b;">
    <circle cx="20" cy="20" r="18" fill="none" class="svgmode__bg"></circle>
    <path class="svgmode__fg"
          d="M29.94 28.9524V11.4991C29.94 10.4973 29.3898 9.45324 27.739 9.45324C26.4832 9.45324 25.9894 10.0035 25.4391 11.104L20.0353 22.3492H19.9788L14.5326 11.104C13.9965 10.0035 13.5026 9.45324 12.2469 9.45324C10.5961 9.45324 10.0459 10.4973 10.0459 11.4991V28.9524C10.0459 29.8977 10.7936 30.448 11.6966 30.448C12.5009 30.448 13.3898 29.8977 13.3898 28.9524V15.9435H13.4462L18.3986 26.0458C18.7513 26.7513 19.2028 27.1464 19.9929 27.1464C20.7972 27.1464 21.2487 26.7513 21.5873 26.0458L26.5397 15.9435H26.5961V28.9382C26.5961 29.8836 27.4991 30.4338 28.3033 30.4338C29.1922 30.4479 29.94 29.8977 29.94 28.9524Z"></path>
    <path class="svgmode__fg"
          d="M19.9929 0C8.95944 0 0 8.95944 0 19.9929C0 31.0406 8.95944 40 19.9929 40C31.0265 40 40 31.0406 40 19.9929C40 8.95944 31.0406 0 19.9929 0ZM19.9929 37.3898C10.3845 37.3898 2.59612 29.6014 2.59612 19.9929C2.59612 10.3845 10.3845 2.59612 19.9929 2.59612C29.6014 2.59612 37.3898 10.3845 37.3898 19.9929C37.3898 29.6014 29.6014 37.3898 19.9929 37.3898Z"></path>
</svg>