<svg viewBox="0 0 40 40" xmlns="http://www.w3.org/2000/svg" aria-hidden="true" focusable="false"
    class="svgmode svgmode-rer traffic-info-line-container__picto traffic-info-line-container__picto-mode"
    style="height: 40px;">
    <path class="svgmode__bg" fill="none"
        d="M9.00176 40H30.9982C35.9647 40 40 35.9647 40 30.9982V9.00176C40 4.03527 35.9647 0 30.9982 0H9.00176C4.03527 0 0 4.03527 0 9.00176V30.9982C0 35.9647 4.03527 40 9.00176 40Z">
</path>
    <path class="svgmode__fg"
        d="M34.342 16.903C34.342 14.2081 32.3385 12.9524 30.3914 12.9524H26.6383C25.9328 12.9524 25.5378 13.5026 25.5378 14.1093V25.8624C25.5378 26.5679 26.2432 26.9065 26.8923 26.9065C27.6401 26.9065 28.2468 26.5538 28.2468 25.8624V21.3051H29.4037L31.6471 26.3563C31.8446 26.7513 32.1974 26.9065 32.5924 26.9065C33.3967 26.9065 34.5395 26.1587 34.088 25.2557L31.9434 20.7548C33.2415 20.0917 34.342 18.9489 34.342 16.903ZM24.1974 25.5944C24.1974 24.9877 23.8023 24.3386 23.0968 24.3386H19.3014V20.8818H22.4478C23.1533 20.8818 23.5483 20.2751 23.5483 19.7249C23.5483 19.1323 23.1533 18.5679 22.4478 18.5679H19.3014V15.4215H22.8006C23.506 15.4215 23.9011 14.7161 23.9011 14.1658C23.9011 13.5591 23.506 12.9101 22.8006 12.9101H17.693C16.9875 12.9101 16.5924 13.4603 16.5924 14.067V25.7637C16.5924 26.4691 17.2979 26.8078 17.9469 26.8078H23.0968C23.8023 26.8501 24.1974 26.1446 24.1974 25.5944ZM14.9981 16.903C14.9981 14.2081 12.9946 12.9524 11.0475 12.9524H7.29438C6.58891 12.9524 6.19385 13.5026 6.19385 14.1093V25.8624C6.19385 26.5679 6.89931 26.9065 7.54834 26.9065C8.29614 26.9065 8.90284 26.5538 8.90284 25.8624V21.3051H10.0598L12.3173 26.3563C12.5148 26.7513 12.8676 26.9065 13.2626 26.9065C14.0669 26.9065 15.2097 26.1587 14.7582 25.2557L12.6136 20.7548C13.8976 20.0917 14.9981 18.9489 14.9981 16.903ZM31.5483 17.1993C31.5483 18.8924 29.9963 19.3016 29.051 19.3016H28.2468V15.2522H29.1921C30.4478 15.2522 31.5483 15.8025 31.5483 17.1993ZM12.2044 17.1993C12.2044 18.8924 10.6524 19.3016 9.70708 19.3016H8.90284V15.2522H9.84817C11.1039 15.2522 12.2044 15.8025 12.2044 17.1993Z">
</path>
    <path class="svgmode__fg"
        d="M30.9982 40H9.00176C4.03527 40 0 35.9647 0 30.9982V9.00176C0 4.03527 4.03527 0 9.00176 0H30.9982C35.9647 0 40 4.03527 40 9.00176V30.9982C40 35.9647 35.9647 40 30.9982 40ZM37.3898 30.9982V9.00176C37.3898 5.47442 34.5256 2.59612 30.9841 2.59612H9.00176C5.47443 2.59612 2.59612 5.46032 2.59612 9.00176V30.9982C2.59612 34.5256 5.46032 37.4039 9.00176 37.4039H30.9982C34.5256 37.3898 37.3898 34.5256 37.3898 30.9982Z">
</path>
</svg>