<svg viewBox="0 0 40 40" xmlns="http://www.w3.org/2000/svg" aria-hidden="true" focusable="false">
    <path class="svgmode__bg" fill="none"
          d="M9.00176 40H30.9982C35.9647 40 40 35.9647 40 30.9982V9.00176C40 4.03527 35.9647 0 30.9982 0H9.00176C4.03527 0 0 4.03527 0 9.00176V30.9982C0 35.9647 4.03527 40 9.00176 40Z"></path>
    <path class="svgmode__fg"
          d="M30.9982 40H9.00176C4.03527 40 0 35.9647 0 30.9982V9.00177C0 4.03528 4.03527 0 9.00176 0H30.9982C35.9647 0 40 4.03528 40 9.00177V30.9982C40 35.9647 35.9647 40 30.9982 40ZM37.3898 30.9982V9.00177C37.3898 5.47443 34.5256 2.59612 30.9841 2.59612H9.00176C5.47443 2.59612 2.59612 5.46032 2.59612 9.00177V30.9982C2.59612 34.5256 5.46032 37.4039 9.00176 37.4039H30.9982C34.5256 37.4039 37.3898 34.5256 37.3898 30.9982Z"></path>
    <path class="svgmode__fg"
          d="M25.9471 28.8678C26.0318 28.8114 26.1164 28.7408 26.187 28.6844C26.9066 28.1059 27.5838 27.217 28.0635 25.8343C28.7408 23.9013 29.2205 22.1659 29.3616 20.0354C29.545 17.411 28.4586 13.3334 27.7531 11.4287L27.4991 10.7514C27.3439 10.3281 26.7514 9.41102 25.7073 8.3246C24.8043 7.39338 23.9436 7.32284 22.6314 7.32284H17.2981C15.9859 7.32284 15.1252 7.39338 14.2223 8.3246C13.1782 9.41102 12.5856 10.314 12.4445 10.7514L12.1905 11.4287C11.4709 13.3334 10.3986 17.411 10.582 20.0354C10.709 22.1659 11.2028 23.8872 11.8801 25.8343C12.3598 27.217 13.0371 28.1059 13.7566 28.6844C13.8272 28.7408 13.9118 28.7973 13.9965 28.8678L10.1164 33.1853C9.80602 33.538 9.80602 34.1024 10.1164 34.4551C10.4268 34.8078 10.9348 34.8078 11.2593 34.4551L12.5997 32.9736H27.3439L28.6843 34.4551C28.9947 34.8078 29.5027 34.8078 29.8272 34.4551C30.1376 34.1024 30.1376 33.538 29.8272 33.1853L25.9471 28.8678ZM24.635 27.3017C23.9013 27.3017 23.2946 26.7091 23.2946 25.9754C23.2946 25.2417 23.8872 24.6491 24.635 24.6491C25.3686 24.6491 25.9753 25.2417 25.9753 25.9754C25.9753 26.695 25.3827 27.3017 24.635 27.3017ZM12.5856 18.7514C11.7672 18.7514 13.0512 11.598 13.6297 11.598H26.1588C26.7937 11.598 28.2752 18.7514 27.2875 18.7514H12.5856ZM13.9401 25.9613C13.9401 25.2276 14.5327 24.635 15.2663 24.635C16 24.635 16.5926 25.2276 16.5926 25.9613C16.5926 26.695 16 27.2876 15.2663 27.2876C14.5327 27.3017 13.9401 26.695 13.9401 25.9613ZM14.2081 31.1676L15.6332 29.5733C16.3245 29.7285 16.9736 29.7285 17.4392 29.7285H22.4903C22.9559 29.7285 23.605 29.7285 24.2963 29.5733L25.7214 31.1676H14.2081Z"></path>
</svg>