<svg viewBox="0 0 40 40" xmlns="http://www.w3.org/2000/svg" aria-hidden="true" focusable="false"
     class="svgmode svgmode-tram traffic-info-line-container__picto traffic-info-line-container__picto-mode" style="fill: #1d1d1b;">
    <rect y="1" width="40" height="38" fill="none" class="svgmode__bg"></rect>
    <path class="svgmode__fg"
          d="M38.7154 2.59611H1.29851C0.578684 2.59611 0 2.01763 0 1.29805C0 0.578477 0.578684 0 1.29851 0H38.7013C39.4211 0 39.9998 0.578477 39.9998 1.29805C40.0139 2.01763 39.4211 2.59611 38.7154 2.59611Z"></path>
    <path class="svgmode__fg"
          d="M38.7154 40H1.29851C0.578684 40 0 39.4215 0 38.7019C0 37.9824 0.578684 37.4039 1.29851 37.4039H38.7013C39.4211 37.4039 39.9998 37.9824 39.9998 38.7019C40.0139 39.4215 39.4211 40 38.7154 40Z"></path>
    <path class="svgmode__fg"
          d="M35.4407 33.284H3.99414V31.605H35.4407C35.7512 31.605 36.0053 31.859 36.0053 32.1694V32.7338C36.0053 33.0301 35.7512 33.284 35.4407 33.284Z"></path>
    <path class="svgmode__fg"
          d="M3.99414 29.9965H30.2043C32.4767 29.9965 34.5091 28.7267 35.4971 26.6949C35.9347 25.806 36.0899 24.8043 35.9488 23.7884C35.5113 20.5997 34.1139 17.6508 31.9404 15.2663C31.2064 14.4621 30.1478 13.9965 29.061 13.9965H15.2291L18.1366 11.612C18.4754 11.3298 18.4754 10.8078 18.1366 10.5256L13.0273 6.34923C12.8297 6.19402 12.5474 6.22223 12.3921 6.40565L12.1098 6.75838C11.9546 6.95591 11.9828 7.2381 12.1663 7.39331L16.6405 11.0759L13.0837 13.9965H3.99414V15.8025H9.80921C9.96447 15.8025 10.0915 15.9295 10.0915 16.0847V23.8307C10.0915 23.9859 9.96447 24.1129 9.80921 24.1129H3.99414V29.9965ZM30.5995 16.4656C32.1521 18.1587 33.253 20.1764 33.8317 22.3775C34.0857 23.3228 33.4929 24.0988 32.519 24.0988H24.1775C24.0223 24.0988 23.8952 23.9718 23.8952 23.8166V16.0847C23.8952 15.9295 24.0223 15.8025 24.1775 15.8025H29.061C29.6538 15.8025 30.2043 16.0423 30.5995 16.4656ZM21.8204 28.2046H18.179C18.0237 28.2046 17.8967 28.0776 17.8967 27.9224V16.0847C17.8967 15.9295 18.0237 15.8025 18.179 15.8025H21.8204C21.9757 15.8025 22.1027 15.9295 22.1027 16.0847V27.9224C22.1027 28.0776 21.9757 28.2046 21.8204 28.2046ZM12.1804 15.8025H15.8219C15.9771 15.8025 16.1042 15.9295 16.1042 16.0847V27.9224C16.1042 28.0776 15.9771 28.2046 15.8219 28.2046H12.1804C12.0252 28.2046 11.8981 28.0776 11.8981 27.9224V16.0847C11.8981 15.9295 12.0252 15.8025 12.1804 15.8025Z"></path>
</svg>