<svg width="348" height="94" viewBox="0 0 348 94" fill="none" xmlns="http://www.w3.org/2000/svg">
    <path d="M1.92 89.8254V26.4654H17.088V89.8254H1.92ZM20.8553 89.8254V58.8174V39.1374H33.5273V56.8974H34.2953C34.2953 52.2254 34.7433 48.5134 35.6393 45.7614C36.5353 43.0094 37.8153 41.0254 39.4793 39.8094C41.1433 38.5934 43.1273 37.9854 45.4313 37.9854C49.3993 37.9854 52.2793 39.6174 54.0713 42.8814C55.8633 46.0814 56.7593 51.1694 56.7593 58.1454V89.8254H41.8793V62.1774C41.8793 58.5934 41.6873 56.0014 41.3033 54.4014C40.9833 52.8014 40.2473 52.0014 39.0953 52.0014C37.9433 52.0014 37.1113 52.6734 36.5993 54.0174C36.1513 55.3614 35.8633 57.1214 35.7353 59.2974C35.6713 61.4734 35.6393 63.8414 35.6393 66.4014V89.8254H20.8553ZM64.1753 89.8254V57.5694H59.0873V47.1054L69.9353 47.9694V47.2974C66.7353 46.6574 64.2713 45.7294 62.5433 44.5134C60.8793 43.2974 59.7273 41.9214 59.0873 40.3854C58.5113 38.8494 58.2233 37.3454 58.2233 35.8734C58.2233 33.2494 58.8633 31.0094 60.1433 29.1534C61.4233 27.2974 63.1513 25.8894 65.3273 24.9294C67.5033 23.9054 69.9673 23.3934 72.7193 23.3934C74.9593 23.3934 77.1033 23.7134 79.1513 24.3534C81.2633 24.9934 83.0233 25.8574 84.4313 26.9454L83.3752 40.9614C81.7753 39.4894 80.3673 38.5294 79.1513 38.0814C77.9993 37.6334 76.9753 37.4094 76.0793 37.4094C74.6713 37.4094 73.5513 37.7614 72.7193 38.4654C71.9513 39.1054 71.5673 40.0654 71.5673 41.3454C71.5673 42.8174 72.0153 43.9374 72.9113 44.7054C73.8713 45.4094 74.9273 45.8574 76.0793 46.0494C77.2953 46.2414 78.3193 46.3374 79.1513 46.3374H84.4313V57.5694H78.9593V89.8254H64.1753ZM104.138 90.9774C99.8495 90.9774 96.3935 89.9534 93.7695 87.9054C91.1455 85.8574 89.2255 82.8814 88.0095 78.9774C86.8575 75.0734 86.2815 70.3054 86.2815 64.6734C86.2815 58.4014 86.9535 53.3134 88.2975 49.4094C89.6415 45.4414 91.6575 42.5614 94.3455 40.7694C97.0335 38.9134 100.362 37.9854 104.33 37.9854C108.682 37.9854 112.17 38.9134 114.794 40.7694C117.482 42.5614 119.434 45.3774 120.65 49.2174C121.866 53.0574 122.474 58.0814 122.474 64.2894C122.474 70.4974 121.802 75.5854 120.458 79.5534C119.114 83.4574 117.098 86.3374 114.41 88.1934C111.722 90.0494 108.298 90.9774 104.138 90.9774ZM104.33 80.3214C105.162 80.3214 105.802 79.8414 106.25 78.8814C106.698 77.9214 107.018 76.3534 107.21 74.1774C107.402 72.0014 107.498 69.0894 107.498 65.4414C107.498 61.2814 107.402 57.9854 107.21 55.5534C107.018 53.1214 106.698 51.3934 106.25 50.3694C105.802 49.2814 105.162 48.7374 104.33 48.7374C103.498 48.7374 102.858 49.2814 102.41 50.3694C101.962 51.3934 101.642 53.1534 101.45 55.6494C101.322 58.0814 101.258 61.4094 101.258 65.6334C101.258 71.0734 101.45 74.8814 101.834 77.0574C102.282 79.2334 103.114 80.3214 104.33 80.3214ZM143.156 90.9774C139.508 90.9774 136.372 90.4334 133.748 89.3454C131.124 88.2574 129.044 86.6894 127.508 84.6414C125.972 82.5294 125.012 80.0334 124.628 77.1534C124.308 74.2094 124.628 70.9134 125.588 67.2654L139.22 65.4414C138.836 67.8734 138.676 70.2414 138.74 72.5454C138.804 74.7854 139.188 76.6414 139.892 78.1134C140.596 79.5214 141.748 80.2254 143.348 80.2254C144.116 80.2254 144.756 80.0334 145.268 79.6494C145.844 79.2654 146.26 78.6894 146.516 77.9214C146.836 77.1534 146.996 76.1614 146.996 74.9454C146.996 72.5774 146.484 70.5614 145.46 68.8974C144.5 67.1694 143.252 65.6654 141.716 64.3854C140.18 63.1054 138.612 61.9214 137.012 60.8334C135.604 59.8094 134.164 58.7214 132.692 57.5694C131.22 56.3534 129.876 55.0094 128.66 53.5374C127.444 52.0014 126.452 50.2734 125.684 48.3534C124.98 46.4334 124.628 44.2254 124.628 41.7294C124.628 38.4654 125.332 35.6174 126.74 33.1854C128.148 30.6894 130.196 28.7694 132.884 27.4254C135.636 26.0174 138.932 25.3134 142.772 25.3134C147.124 25.3134 150.676 26.1774 153.428 27.9054C156.244 29.6334 158.228 32.1294 159.38 35.3934C160.596 38.5934 160.948 42.4334 160.436 46.9134L147.092 48.6414C147.284 47.1054 147.348 45.6334 147.284 44.2254C147.284 42.7534 147.124 41.4414 146.804 40.2894C146.484 39.1374 145.972 38.2414 145.268 37.6014C144.628 36.8974 143.796 36.5454 142.772 36.5454C142.068 36.5454 141.428 36.7374 140.852 37.1214C140.34 37.5054 139.924 38.0494 139.604 38.7534C139.348 39.3934 139.22 40.1934 139.22 41.1534C139.22 42.7534 139.604 44.1614 140.372 45.3774C141.14 46.5294 142.132 47.5854 143.348 48.5454C144.628 49.4414 145.94 50.3374 147.284 51.2334C149.14 52.4494 150.932 53.7614 152.66 55.1694C154.388 56.5134 155.924 58.0494 157.268 59.7774C158.676 61.5054 159.764 63.4894 160.532 65.7294C161.364 67.9694 161.78 70.5614 161.78 73.5054C161.78 76.8334 161.14 79.8414 159.86 82.5294C158.644 85.1534 156.66 87.2334 153.908 88.7694C151.22 90.2414 147.636 90.9774 143.156 90.9774ZM181.566 90.5934C176.574 90.5934 172.67 89.0894 169.854 86.0814C167.102 83.0734 165.726 78.4654 165.726 72.2574V50.5614H162.942V40.7694H164.19C166.238 40.7694 167.614 40.2574 168.318 39.2334C169.022 38.1454 169.502 36.5134 169.758 34.3374L170.334 29.6334H180.126V39.1374H186.75V50.8494H180.126V69.1854C180.126 71.6174 180.478 73.4414 181.182 74.6574C181.95 75.8734 182.942 76.4814 184.158 76.4814C184.67 76.4814 185.118 76.3854 185.502 76.1934C185.95 76.0014 186.366 75.7134 186.75 75.3294V89.8254C185.918 90.0814 185.086 90.2734 184.254 90.4014C183.422 90.5294 182.526 90.5934 181.566 90.5934ZM199.203 90.9774C197.155 90.9774 195.331 90.4974 193.731 89.5374C192.195 88.5774 190.979 87.2014 190.083 85.4094C189.187 83.6174 188.739 81.4734 188.739 78.9774C188.739 76.0974 189.251 73.6974 190.275 71.7774C191.299 69.8574 192.611 68.2894 194.211 67.0734C195.811 65.7934 197.475 64.8014 199.203 64.0974C200.995 63.3294 202.595 62.6894 204.003 62.1774C205.603 61.6014 206.819 60.9934 207.651 60.3534C208.547 59.7134 209.155 58.9774 209.475 58.1454C209.795 57.2494 209.955 56.1614 209.955 54.8814C209.955 53.0894 209.699 51.7454 209.187 50.8494C208.675 49.9534 207.939 49.5054 206.979 49.5054C206.083 49.5054 205.379 49.9214 204.867 50.7534C204.355 51.5214 204.035 52.7374 203.907 54.4014C203.779 56.0014 203.843 58.0494 204.099 60.5454L189.699 59.0094C189.507 55.6174 189.763 52.6094 190.467 49.9854C191.171 47.3614 192.259 45.1534 193.731 43.3614C195.267 41.5694 197.187 40.2254 199.491 39.3294C201.795 38.4334 204.483 37.9854 207.555 37.9854C211.267 37.9854 214.371 38.7534 216.867 40.2894C219.427 41.7614 221.347 44.0654 222.627 47.2014C223.907 50.2734 224.547 54.2734 224.547 59.2014V71.3934C224.547 73.4414 224.547 75.4894 224.547 77.5374C224.547 79.5854 224.547 81.6334 224.547 83.6814C224.547 85.7294 224.547 87.7774 224.547 89.8254H211.683C211.683 87.6494 211.683 85.5054 211.683 83.3934C211.683 81.2174 211.683 79.0414 211.683 76.8654H210.915C210.659 79.9374 210.019 82.5294 208.995 84.6414C207.971 86.7534 206.627 88.3534 204.963 89.4414C203.299 90.4654 201.379 90.9774 199.203 90.9774ZM205.923 79.0734C206.563 79.0734 207.107 78.8814 207.555 78.4974C208.067 78.1134 208.483 77.5694 208.803 76.8654C209.123 76.1614 209.347 75.3934 209.475 74.5614C209.667 73.7294 209.763 72.8974 209.763 72.0654V65.2494L211.779 63.7134C211.267 64.4814 210.691 65.1534 210.051 65.7294C209.411 66.2414 208.739 66.7214 208.035 67.1694C207.395 67.5534 206.755 67.9694 206.115 68.4174C205.539 68.8654 205.027 69.3454 204.579 69.8574C204.131 70.3694 203.747 71.0094 203.427 71.7774C203.171 72.5454 203.043 73.4734 203.043 74.5614C203.043 76.2894 203.331 77.4734 203.907 78.1134C204.547 78.7534 205.219 79.0734 205.923 79.0734ZM244.847 90.5934C239.855 90.5934 235.951 89.0894 233.135 86.0814C230.383 83.0734 229.007 78.4654 229.007 72.2574V50.5614H226.223V40.7694H227.471C229.519 40.7694 230.895 40.2574 231.599 39.2334C232.303 38.1454 232.783 36.5134 233.039 34.3374L233.615 29.6334H243.407V39.1374H250.031V50.8494H243.407V69.1854C243.407 71.6174 243.759 73.4414 244.463 74.6574C245.231 75.8734 246.223 76.4814 247.439 76.4814C247.951 76.4814 248.399 76.3854 248.783 76.1934C249.231 76.0014 249.647 75.7134 250.031 75.3294V89.8254C249.199 90.0814 248.367 90.2734 247.535 90.4014C246.703 90.5294 245.807 90.5934 244.847 90.5934ZM253.076 89.8254V39.1374H267.86V89.8254H253.076ZM260.468 35.6814C257.716 35.6814 255.572 35.1054 254.036 33.9534C252.5 32.8014 251.732 31.1374 251.732 28.9614C251.732 26.7854 252.5 25.1214 254.036 23.9694C255.572 22.7534 257.716 22.1454 260.468 22.1454C263.284 22.1454 265.428 22.7534 266.9 23.9694C268.436 25.1214 269.204 26.7854 269.204 28.9614C269.204 31.1374 268.436 32.8014 266.9 33.9534C265.428 35.1054 263.284 35.6814 260.468 35.6814ZM288.825 90.9774C284.537 90.9774 281.081 89.9534 278.457 87.9054C275.833 85.8574 273.913 82.8814 272.697 78.9774C271.545 75.0734 270.969 70.3054 270.969 64.6734C270.969 58.4014 271.641 53.3134 272.985 49.4094C274.329 45.4414 276.345 42.5614 279.033 40.7694C281.721 38.9134 285.049 37.9854 289.017 37.9854C293.369 37.9854 296.857 38.9134 299.481 40.7694C302.169 42.5614 304.121 45.3774 305.337 49.2174C306.553 53.0574 307.161 58.0814 307.161 64.2894C307.161 70.4974 306.489 75.5854 305.145 79.5534C303.801 83.4574 301.785 86.3374 299.097 88.1934C296.409 90.0494 292.985 90.9774 288.825 90.9774ZM289.017 80.3214C289.849 80.3214 290.489 79.8414 290.937 78.8814C291.385 77.9214 291.705 76.3534 291.897 74.1774C292.089 72.0014 292.185 69.0894 292.185 65.4414C292.185 61.2814 292.089 57.9854 291.897 55.5534C291.705 53.1214 291.385 51.3934 290.937 50.3694C290.489 49.2814 289.849 48.7374 289.017 48.7374C288.185 48.7374 287.545 49.2814 287.097 50.3694C286.649 51.3934 286.329 53.1534 286.137 55.6494C286.009 58.0814 285.945 61.4094 285.945 65.6334C285.945 71.0734 286.137 74.8814 286.521 77.0574C286.969 79.2334 287.801 80.3214 289.017 80.3214ZM310.355 89.8254V58.8174V39.1374H323.027V56.8974H323.795C323.795 52.2254 324.243 48.5134 325.139 45.7614C326.035 43.0094 327.315 41.0254 328.979 39.8094C330.643 38.5934 332.627 37.9854 334.931 37.9854C338.899 37.9854 341.779 39.6174 343.571 42.8814C345.363 46.0814 346.259 51.1694 346.259 58.1454V89.8254H331.379V62.1774C331.379 58.5934 331.187 56.0014 330.803 54.4014C330.483 52.8014 329.747 52.0014 328.595 52.0014C327.443 52.0014 326.611 52.6734 326.099 54.0174C325.651 55.3614 325.363 57.1214 325.235 59.2974C325.171 61.4734 325.139 63.8414 325.139 66.4014V89.8254H310.355Z"
          fill="#202124" style="fill:#202124;fill:color(display-p3 0.1255 0.1294 0.1412);fill-opacity:1;"/>
</svg>
